<svg xmlns="http://www.w3.org/2000/svg" viewBox="0 0 512 512">
  <path fill="#fff" d="M462.1 27.001H49.9c-12.676 0-22.898 10.223-22.898 22.899v412.2c0 12.677 10.223 22.899 22.898 22.899h412.2c12.677 0 22.898-10.223 22.898-22.899V49.9c0-12.676-10.222-22.899-22.898-22.899"/>
  <path fill="#fff" d="M462.1 494.999H49.9c-18.14 0-32.898-14.759-32.898-32.899V49.9c0-18.141 14.758-32.899 32.898-32.899h412.2c18.141 0 32.898 14.759 32.898 32.899v412.2c0 18.14-14.758 32.899-32.898 32.899zM49.9 37.001c-7.112 0-12.898 5.787-12.898 12.899v412.2c0 7.112 5.786 12.899 12.898 12.899h412.2c7.112 0 12.898-5.787 12.898-12.899V49.9c0-7.113-5.786-12.899-12.898-12.899H49.9z"/>
  <path fill="#424856" d="M238.553 151.314h119.27v43.552h-119.27zM238.553 227.647h119.27v43.551h-119.27zM238.553 303.981h119.27v43.551h-119.27zM162.219 151.314h43.619V347.6h-43.619z"/>
</svg>